<svg xmlns="http://www.w3.org/2000/svg" xmlns:xlink="http://www.w3.org/1999/xlink" viewBox="0 0 570 570"><defs><style>.cls-1{fill:#bb2c66;}.cls-2{clip-path:url(#clip-path);}.cls-3{fill:#f2f3e8;}.cls-4{fill:#cecebe;}.cls-5{fill:#c6c5b5;}.cls-6{fill:#f4e9dd;}.cls-7{fill:#5c1632;}.cls-8{fill:#7c2f2f;opacity:0.47;}.cls-9{fill:#693b2f;}.cls-10{fill:#231010;}.cls-11{fill:#f4b694;}.cls-12,.cls-13,.cls-15,.cls-21{fill:#c97b5c;}.cls-12{opacity:0.8;}.cls-13{opacity:0.6;}.cls-14{fill:#c17256;}.cls-16{fill:#613125;}.cls-17{fill:#40211f;}.cls-18{fill:#2c1515;}.cls-19{fill:#fff;}.cls-20{fill:#331315;}.cls-21{opacity:0.7;}</style><clipPath id="clip-path"><circle class="cls-1" cx="285" cy="285" r="285"/></clipPath></defs><g id="Layer_2" data-name="Layer 2"><g id="OBEJCTS"><circle class="cls-1" cx="285" cy="285" r="285"/><g class="cls-2"><path class="cls-3" d="M203.6,378.88c-10.49.87-50.18,5.42-82.68,38.66-27.8,28.45-34,61.22-35.66,72.67,12.94,12.81,91.77,88.32,213,83,105.64-4.63,172.44-67.53,188-83-2.05-12.38-8.79-42.65-34.17-69.7-33.67-35.89-76.31-40.73-87.14-41.63Z"/><path class="cls-4" d="M140.22,532.27c-.82-4.74-2-11.32-3.64-19.12-7.33-35.18-15.8-58.72-15.16-58.94.41-.14,4.21,9.16,18.34,48.25,1-29.36,1.51-35.92,1.83-35.92.56,0,0,20,2.67,48.17.85,8.92,1.8,16.29,2.51,21.37Z"/><path class="cls-4" d="M432.47,532.27c.82-4.74,2-11.32,3.64-19.12,7.33-35.18,15.81-58.72,15.16-58.94-.41-.14-4.21,9.16-18.34,48.25-1-29.36-1.51-35.92-1.83-35.92-.56,0,0,20-2.67,48.17-.84,8.92-1.79,16.29-2.51,21.37Z"/><path class="cls-5" d="M223.76,370.21l-20.16,8.67c21,34.23,59.19,52.64,96,46.66,41.63-6.76,62.48-41.65,65.36-46.66L346,371.71Z"/><path class="cls-6" d="M331.65,364.88,346,371.71a125.35,125.35,0,0,1-43,30.5l-17.78-15.59L268,402.21a103.19,103.19,0,0,1-44.2-32l15.16-5.33Z"/><path class="cls-7" d="M268,402.21l17.3-15.59L303,402.21a45.83,45.83,0,0,1-9.73,2.77A48.36,48.36,0,0,1,268,402.21Z"/><path class="cls-8" d="M203.85,216.34c.14.75.28,1.43.41,2l-.09-.15C204.06,217.59,204,217,203.85,216.34Z"/><path class="cls-9" d="M205.38,223.09a289.78,289.78,0,0,1-16.12-28.38c-5.74-11.58-10.49-21.17-12-28-7-31.39,39.48-72.49,80-91.5,19.44-9.12,50.95-23.91,76-9,11.29,6.72,17.44,17.2,20.76,24.67,3-1.94,5.12-1.87,6.24-1.67,5.56,1,10.1,9.92,9.71,22.33,2.67-3.89,6.28-5.75,8.79-4.83s3.14,4,3.5,5.5c1.95,8-3.55,15.58-5.47,18,7.83,5.22,10.2,12.56,7.95,16-1.86,2.81-6.71,2.74-7.95,2.69,3.32,4,9.24,12.36,10,23.83.54,8.48-2,14.8-6.14,25A131.13,131.13,0,0,1,367,223.09Z"/><path class="cls-10" d="M285.76,145.21A81.28,81.28,0,0,0,320,120a56.47,56.47,0,0,1-15.49,18,55.89,55.89,0,0,1-15.23,8.16Z"/><path class="cls-11" d="M331.65,315.6v49.28a160.63,160.63,0,0,1-16.73,10.66c-12.57,7-18.86,10.46-26.66,11-11.07.78-19.94-3.91-31.75-10.17a114.68,114.68,0,0,1-17.59-11.49V315.6Z"/><path class="cls-12" d="M238.92,315.6a116.26,116.26,0,0,0,92.73,49.28V315.6Z"/><path class="cls-11" d="M372.26,183.71c-.76,8.68-2,20-4.25,33.29-1,6.17-2.26,12.76-3.75,19.71-7.73,36-12,54.65-27,72.5-6.94,8.24-23.94,28.41-49.5,29.5-32.26,1.38-54.53-28.65-58.5-34-12.24-16.5-16-36.83-23.5-77.5q-.85-4.65-1.59-9c-.11-.64-.21-1.27-.32-1.89-.28-1.7-.55-3.36-.8-5-1.38-8.81-2.36-16.34-3.05-22.17-.21-5.55-.08-22.21,11.76-35a41.55,41.55,0,0,1,8.5-7,93.81,93.81,0,0,0,40,4.5,92.57,92.57,0,0,0,25.5-6.5c3.57,1.07,21.18,5.94,37-4a40.41,40.41,0,0,0,11.5-11,108.57,108.57,0,0,1,17,16A110.69,110.69,0,0,1,372.26,183.71Z"/><path class="cls-11" d="M367,223.09c2.23-1.27,8.33-4.35,14.31-2.21,9.17,3.27,11.46,16.4,11,23.33-1,14.73-16.26,28.29-38.24,34Z"/><path class="cls-13" d="M381.66,235.44a5.07,5.07,0,0,0-3.66-1.65c-7.65.34-11.91,25.42-12.59,29.56,1.61-.76,12.95-6.21,16.79-14.68a13.84,13.84,0,0,0,1.48-8.38A12.34,12.34,0,0,0,381.66,235.44Z"/><path class="cls-14" d="M377.44,232.53c-5.07-.27-9.31,11.2-10,13.14-3.26,9.17-2.58,17.62-2,17.68s.95-6.69,4.72-16.79c3.54-9.5,6.2-11.75,8.36-11.84,1.57-.07,3,1,3.17.72S379.7,232.65,377.44,232.53Z"/><path class="cls-14" d="M376,246.81c2.23,4.68-1,10.31-1.37,10.22s2.12-5.56-.59-9.29c-1.53-2.1-4.35-3.12-4.06-4.71a1.22,1.22,0,0,1,.57-.86C371.79,241.58,374.73,244.14,376,246.81Z"/><path class="cls-11" d="M205.38,223.09c-2.23-1.27-8.33-4.35-14.31-2.21-9.17,3.27-11.46,16.4-11,23.33,1,14.73,16.26,28.29,38.24,34Z"/><path class="cls-13" d="M191.9,235.44a5.08,5.08,0,0,1,3.67-1.65c7.65.34,11.91,25.42,12.59,29.56-1.62-.76-13-6.21-16.8-14.68a13.84,13.84,0,0,1-1.48-8.38A12.49,12.49,0,0,1,191.9,235.44Z"/><path class="cls-14" d="M196.12,232.53c5.08-.27,9.32,11.2,10,13.14,3.26,9.17,2.58,17.62,2,17.68s-1-6.69-4.73-16.79c-3.54-9.5-6.2-11.75-8.36-11.84-1.57-.07-3,1-3.17.72S193.86,232.65,196.12,232.53Z"/><path class="cls-14" d="M197.56,246.81c-2.24,4.68,1,10.31,1.37,10.22s-2.13-5.56.58-9.29c1.53-2.1,4.36-3.12,4.07-4.71a1.3,1.3,0,0,0-.57-.86C201.78,241.58,198.83,244.14,197.56,246.81Z"/><path class="cls-15" d="M282.92,234.54l-8.33,29.09a4,4,0,0,0,.72,3.58,13.19,13.19,0,0,0,10.78,5,13.34,13.34,0,0,0,9.71-5,3.91,3.91,0,0,0,.74-3.65q-4.31-14.51-8.62-29a2.63,2.63,0,0,0-2-2.5A2.7,2.7,0,0,0,282.92,234.54Z"/><path class="cls-15" d="M297.51,283a54.57,54.57,0,0,0,17.25-8.58,3.29,3.29,0,0,1,4-.17c1.22,1.06,1.28,3.53-.5,5a48.4,48.4,0,0,1-19.66,9.62c-20.08,4.47-37.8-6.06-37.51-7.12S277.92,288.58,297.51,283Z"/><path class="cls-16" d="M229.51,192a3.47,3.47,0,0,1-4.75-5,32.16,32.16,0,0,1,44-6.12,3.35,3.35,0,0,1-2.72,6.1,29.33,29.33,0,0,0-36.53,5Z"/><path class="cls-16" d="M342.67,192a3.47,3.47,0,0,0,4.75-5,32.16,32.16,0,0,0-44-6.12,3.34,3.34,0,0,0,2.71,6.1,29.35,29.35,0,0,1,36.54,5Z"/><path class="cls-17" d="M251.26,201c9.78-.18,17.28,9.08,16.66,10.08-.51.85-6.46-4.57-15.66-4.5-10.71.09-17.51,7.54-18.17,6.67S240.72,201.16,251.26,201Z"/><path class="cls-17" d="M319.74,201C310,200.78,302.46,210,303.08,211c.51.85,6.46-4.57,15.66-4.5,10.71.09,17.51,7.54,18.17,6.67S330.28,201.16,319.74,201Z"/><ellipse class="cls-18" cx="253.34" cy="225.46" rx="8.25" ry="9.08"/><circle class="cls-19" cx="255.03" cy="221.4" r="1.69"/><ellipse class="cls-18" cx="317.51" cy="225.46" rx="8.25" ry="9.08"/><circle class="cls-19" cx="315.82" cy="221.4" r="1.69"/><path class="cls-20" d="M249.51,252.21A30.25,30.25,0,1,1,279.76,222,30.28,30.28,0,0,1,249.51,252.21Zm0-56.5A26.25,26.25,0,1,0,275.76,222,26.28,26.28,0,0,0,249.51,195.71Z"/><path class="cls-20" d="M322.19,252.21A30.25,30.25,0,1,1,352.44,222,30.28,30.28,0,0,1,322.19,252.21Zm0-56.5A26.25,26.25,0,1,0,348.44,222,26.29,26.29,0,0,0,322.19,195.71Z"/><rect class="cls-20" x="277.76" y="219.96" width="16.18" height="4"/><path class="cls-20" d="M219.79,225.91l-14.82-3c-.24-1.49-.47-3-.71-4.48L220.73,222Z"/><path class="cls-20" d="M350.51,227q.74-2.47,1.46-4.94l16-3.39c-.23,1.41-.45,2.83-.67,4.24Z"/><path class="cls-21" d="M368,217V183.71a251.81,251.81,0,0,0-19.08-29.17c-5.17-6.81-10.34-12.91-15.34-18.33-1.69,2.45-9.92,13.82-25.33,16.67a39.4,39.4,0,0,1-22.68-2.67c-8.52,4-25.46,10.47-46.32,7.67a78,78,0,0,1-18-4.67,57.76,57.76,0,0,0-8.33,9.67c-11.74,17.14-11.43,36.79-9.88,48.49-1.38-8.81-2.36-16.34-3.05-22.17-.21-5.55-.08-22.21,11.76-35a41.55,41.55,0,0,1,8.5-7,93.81,93.81,0,0,0,40,4.5,92.57,92.57,0,0,0,25.5-6.5c3.57,1.07,21.18,5.94,37-4a40.41,40.41,0,0,0,11.5-11,108.57,108.57,0,0,1,17,16,110.69,110.69,0,0,1,21,37.5C371.5,192.39,370.23,203.72,368,217Z"/></g></g></g></svg>