<svg xmlns="http://www.w3.org/2000/svg" viewBox="0 0 1530 1264"><defs><style>.cls-1{fill:#fff;}</style></defs><g id="Layer_2" data-name="Layer 2"><g id="Layer_1-2" data-name="Layer 1"><path class="cls-1" d="M1509,279a21,21,0,0,1-21-21V81a39.05,39.05,0,0,0-39-39H81A39.05,39.05,0,0,0,42,81V258a21,21,0,0,1-42,0V81A81.1,81.1,0,0,1,81,0H1449a81.1,81.1,0,0,1,81,81V258A21,21,0,0,1,1509,279Z"/><path class="cls-1" d="M1449,1264H81a81.1,81.1,0,0,1-81-81V258a21,21,0,0,1,21-21H1509a21,21,0,0,1,21,21v925A81.1,81.1,0,0,1,1449,1264ZM42,279v904a39.05,39.05,0,0,0,39,39H1449a39.05,39.05,0,0,0,39-39V279Z"/><rect class="cls-1" x="172.99" y="104.5" width="70" height="70" rx="35"/><rect class="cls-1" x="310.99" y="104.5" width="70" height="70" rx="35"/><rect class="cls-1" x="448.99" y="104.5" width="70" height="70" rx="35"/><path class="cls-1" d="M557.76,936.16A20.89,20.89,0,0,1,545,931.78L331.49,767.13a21,21,0,0,1,0-33.26L545,569.22a21,21,0,1,1,25.65,33.25l-191.91,148,191.91,148a21,21,0,0,1-12.84,37.63Z"/><path class="cls-1" d="M972.24,936.16a21,21,0,0,1-12.84-37.63l191.91-148-191.91-148a21,21,0,1,1,25.65-33.25l213.46,164.65a21,21,0,0,1,0,33.26L985.05,931.78A20.91,20.91,0,0,1,972.24,936.16Z"/><path class="cls-1" d="M687.27,1061.62A21,21,0,0,1,667,1035.18L822.45,455A21,21,0,0,1,863,465.82L707.55,1046.06A21,21,0,0,1,687.27,1061.62Z"/></g></g></svg>